<?xml version="1.0" encoding="UTF-8" standalone="no"?>
<!-- Created with Inkscape (http://www.inkscape.org/) -->

<svg
   xmlns:dc="http://purl.org/dc/elements/1.1/"
   xmlns:cc="http://creativecommons.org/ns#"
   xmlns:rdf="http://www.w3.org/1999/02/22-rdf-syntax-ns#"
   xmlns:svg="http://www.w3.org/2000/svg"
   xmlns="http://www.w3.org/2000/svg"
   version="1.2"
   preserveAspectRatio="xMinYMin meet"
   viewBox="0 0 150 66"
   width="150"
   height="132.39407"
   id="svg2">
  <defs
     id="defs4" />
  <metadata
     id="metadata7">
    <rdf:RDF>
      <cc:Work
         rdf:about="">
        <dc:format>image/svg+xml</dc:format>
        <dc:type
           rdf:resource="http://purl.org/dc/dcmitype/StillImage" />
        <dc:title></dc:title>
      </cc:Work>
    </rdf:RDF>
  </metadata>
  <g
     transform="translate(0,-952.375)"
     id="layer1" />
  <path
     d="M 50,0.5 C 22.660594,0.5 0.5,22.66068 0.5,50 c 0,27.3395 22.160594,49.5 49.5,49.5 13.444872,0 25.611793,-5.3934 34.53125,-14.0938 l 0,23.0626 9.25,0 0,-30 0,-9.25 -9.25,0 -30,0 0,9.25 22.9375,0 C 70.372956,85.1996 60.805423,89.3438 50.25,89.3438 28.378476,89.3438 10.625,71.6216 10.625,49.75 c 0,-21.87144 17.753476,-39.59375 39.625,-39.59375 11.166301,0 21.240432,4.63005 28.4375,12.0625 l 6.75,-6.75 C 76.446819,6.24475 63.899181,0.5 50,0.5 z"
     id="path2987"
     style="fill:#ff0000;fill-opacity:1;stroke:#000000;stroke-width:0.99995345;stroke-miterlimit:4;stroke-opacity:1;stroke-dasharray:none" />
  <path
     d="m 125,50.4688 c -13.53298,0 -24.5,10.9982 -24.5,24.5312 0,13.533 10.96702,24.5 24.5,24.5 13.53298,0 24.5,-10.967 24.5,-24.5 0,-13.533 -10.96702,-24.5312 -24.5,-24.5312 z m 0,9.8124 c 8.11861,0 14.71875,6.5689 14.71875,14.6876 0,8.1186 -6.60014,14.7187 -14.71875,14.7187 -8.11861,0 -14.6875,-6.6001 -14.6875,-14.7187 0,-8.1187 6.56889,-14.6876 14.6875,-14.6876 z"
     id="path3823"
     style="fill:#ff0000;fill-opacity:1;fill-rule:nonzero;stroke:#000000;stroke-width:1;stroke-linecap:butt;stroke-linejoin:miter;stroke-miterlimit:4;stroke-opacity:1;stroke-dasharray:none" />
  <g
     transform="matrix(0.97092288,0,0,1,-32.632111,-966.51714)"
     id="flowRoot3844"
     style="font-size:40px;font-style:normal;font-weight:normal;line-height:125%;letter-spacing:0px;word-spacing:0px;fill:#ffffff;fill-opacity:1;stroke:none;font-family:Sans">
    <path
       d="m 33.609375,1089.2237 3.574219,-0.3125 c 0.169265,1.4323 0.563145,2.6074 1.18164,3.5254 0.618483,0.918 1.578768,1.6602 2.88086,2.2266 1.302072,0.5664 2.766915,0.8496 4.394531,0.8496 1.445297,0 2.721338,-0.2149 3.828125,-0.6445 1.106752,-0.4297 1.930319,-1.0189 2.470703,-1.7676 0.540344,-0.7487 0.810526,-1.5658 0.810547,-2.4512 -2.1e-5,-0.8984 -0.260437,-1.6829 -0.78125,-2.3535 -0.520853,-0.6706 -1.380227,-1.2337 -2.578125,-1.6895 -0.768246,-0.2994 -2.467463,-0.7649 -5.097656,-1.3965 -2.630218,-0.6314 -4.472665,-1.2272 -5.527344,-1.7871 -1.367193,-0.7161 -2.386072,-1.6048 -3.056641,-2.666 -0.670576,-1.0612 -1.005862,-2.2493 -1.005859,-3.5644 -3e-6,-1.4453 0.410153,-2.7962 1.230469,-4.0528 0.820307,-1.2564 2.018223,-2.2102 3.59375,-2.8613 1.575511,-0.651 3.326812,-0.9765 5.253906,-0.9766 2.122381,10e-5 3.994124,0.3419 5.615234,1.0254 1.621074,0.6837 2.867817,1.6895 3.740235,3.0176 0.872372,1.3282 1.341122,2.8321 1.40625,4.5117 l -3.632813,0.2735 c -0.195332,-1.8099 -0.856139,-3.1771 -1.982422,-4.1016 -1.126319,-0.9244 -2.789728,-1.3867 -4.990234,-1.3867 -2.291677,0 -3.961598,0.4199 -5.009766,1.2598 -1.048184,0.8398 -1.572272,1.8522 -1.572265,3.0371 -7e-6,1.0286 0.371087,1.875 1.113281,2.539 0.729158,0.6641 2.633453,1.3444 5.712891,2.041 3.07941,0.6967 5.192038,1.3054 6.33789,1.8262 1.666646,0.7683 2.897113,1.7416 3.691406,2.9199 0.794247,1.1784 1.191382,2.5359 1.191407,4.0723 -2.5e-5,1.5234 -0.436222,2.959 -1.308594,4.3066 -0.872418,1.3477 -2.125672,2.3959 -3.759766,3.1446 -1.634132,0.7487 -3.473323,1.123 -5.517578,1.123 -2.591157,0 -4.762379,-0.3776 -6.513672,-1.1328 -1.751307,-0.7552 -3.125004,-1.8913 -4.121093,-3.4082 -0.996096,-1.5169 -1.520185,-3.2324 -1.572266,-5.1465 z"
       id="path3025" />
    <path
       d="m 59.859375,1088.0518 c -10e-7,-3.8411 1.067706,-6.6861 3.203125,-8.5351 1.783848,-1.5364 3.958325,-2.3047 6.523437,-2.3047 2.851549,0 5.182276,0.9343 6.992188,2.8027 1.809876,1.8685 2.714823,4.4499 2.714844,7.7442 -2.1e-5,2.6693 -0.400411,4.7689 -1.201172,6.2988 -0.8008,1.53 -1.966164,2.7181 -3.496094,3.5645 -1.529962,0.8463 -3.199883,1.2695 -5.009766,1.2695 -2.903653,0 -5.250656,-0.931 -7.041015,-2.793 -1.790367,-1.862 -2.685548,-4.5442 -2.685547,-8.0469 z m 3.613281,0 c -5e-6,2.6563 0.579422,4.6452 1.738281,5.9668 1.158847,1.3217 2.617179,1.9825 4.375,1.9825 1.744779,0 3.196601,-0.6641 4.355469,-1.9922 1.158838,-1.3281 1.738264,-3.3529 1.738281,-6.0742 -1.7e-5,-2.5651 -0.582698,-4.5085 -1.748046,-5.8301 -1.165379,-1.3216 -2.613945,-1.9824 -4.345704,-1.9824 -1.757821,0 -3.216153,0.6575 -4.375,1.9726 -1.158859,1.3151 -1.738286,3.3008 -1.738281,5.957 z"
       id="path3027" />
    <path
       d="m 84.273437,1098.4229 0,-18.0078 -3.105468,0 0,-2.7343 3.105468,0 0,-2.2071 c -3e-6,-1.3932 0.123695,-2.4283 0.371094,-3.1054 0.338538,-0.9115 0.93424,-1.6504 1.78711,-2.2168 0.852858,-0.5664 2.047518,-0.8496 3.583984,-0.8497 0.989573,10e-5 2.083322,0.1173 3.28125,0.3516 l -0.527344,3.0664 c -0.729178,-0.1302 -1.419281,-0.1953 -2.070312,-0.1953 -1.067717,0 -1.822925,0.2279 -2.265625,0.6836 -0.442716,0.4557 -0.66407,1.3086 -0.664063,2.5586 l 0,1.9141 4.042969,0 0,2.7343 -4.042969,0 0,18.0078 z"
       id="path3029" />
    <path
       d="m 102.20313,1095.2784 0.50781,3.1055 c -0.9896,0.2083 -1.87501,0.3125 -2.65625,0.3125 -1.276051,0 -2.265633,-0.2018 -2.968753,-0.6055 -0.703129,-0.4036 -1.19792,-0.9342 -1.484375,-1.5918 -0.286461,-0.6575 -0.42969,-2.041 -0.429687,-4.1504 l 0,-11.9336 -2.578125,0 0,-2.7343 2.578125,0 0,-5.1368 3.496094,-2.1093 0,7.2461 3.535161,0 0,2.7343 -3.535161,0 0,12.1289 c -7e-6,1.0026 0.06184,1.6472 0.185547,1.9336 0.12369,0.2865 0.325513,0.5144 0.605468,0.6836 0.27994,0.1693 0.680326,0.2539 1.201176,0.2539 0.39061,0 0.90493,-0.045 1.54297,-0.1367 z"
       id="path3031" />
    <path
       d="m 109.44922,1098.4229 -6.34766,-20.7421 3.63282,0 3.30078,11.9726 1.23047,4.4531 c 0.0521,-0.2213 0.41014,-1.6471 1.07421,-4.2773 l 3.30079,-12.1484 3.61328,0 3.10547,12.0312 1.03515,3.9648 1.19141,-4.0039 3.55468,-11.9921 3.41797,0 -6.48437,20.7421 -3.65234,0 -3.30079,-12.4218 -0.80078,-3.5352 -4.19922,15.957 z"
       id="path3033" />
    <path
       d="m 148.0625,1095.8643 c -1.3021,1.1068 -2.55535,1.8881 -3.75977,2.3438 -1.20443,0.4557 -2.49675,0.6836 -3.87695,0.6836 -2.27865,0 -4.02995,-0.5567 -5.25391,-1.6699 -1.22396,-1.1133 -1.83593,-2.5358 -1.83593,-4.2676 0,-1.0156 0.23112,-1.9434 0.69336,-2.7832 0.46223,-0.8398 1.0677,-1.5137 1.8164,-2.0215 0.7487,-0.5078 1.59179,-0.8919 2.5293,-1.1523 0.6901,-0.1823 1.73176,-0.3581 3.125,-0.5274 2.83853,-0.3385 4.92837,-0.7422 6.26953,-1.2109 0.013,-0.4818 0.0195,-0.7878 0.0195,-0.918 -1e-5,-1.4323 -0.33204,-2.4414 -0.99609,-3.0273 -0.89845,-0.7943 -2.23309,-1.1914 -4.00391,-1.1914 -1.65365,0 -2.87435,0.2897 -3.66211,0.8691 -0.78776,0.5794 -1.37045,1.6048 -1.74804,3.0762 l -3.4375,-0.4688 c 0.31249,-1.4713 0.82682,-2.6595 1.54296,-3.5644 0.71615,-0.905 1.7513,-1.6016 3.10547,-2.0899 1.35416,-0.4882 2.92317,-0.7324 4.70703,-0.7324 1.77083,0 3.20963,0.2084 4.31641,0.625 1.10676,0.4167 1.92056,0.9408 2.44141,1.5723 0.52081,0.6315 0.8854,1.429 1.09375,2.3925 0.11717,0.599 0.17576,1.6797 0.17578,3.2422 l 0,4.6875 c -2e-5,3.2683 0.0748,5.3353 0.22461,6.2012 0.14972,0.8659 0.44594,1.696 0.88867,2.4902 l -3.67188,0 c -0.36459,-0.7291 -0.59897,-1.582 -0.70312,-2.5586 z m -0.29297,-7.8515 c -1.27606,0.5208 -3.19012,0.9635 -5.74219,1.3281 -1.44532,0.2084 -2.46745,0.4427 -3.0664,0.7031 -0.59897,0.2605 -1.06121,0.6413 -1.38672,1.1426 -0.32553,0.5013 -0.48829,1.058 -0.48828,1.6699 -1e-5,0.9375 0.35481,1.7188 1.06445,2.3438 0.70963,0.625 1.74804,0.9375 3.11523,0.9375 1.35416,0 2.55859,-0.2962 3.61329,-0.8887 1.05467,-0.5924 1.82941,-1.403 2.32421,-2.4316 0.37759,-0.7943 0.5664,-1.9662 0.56641,-3.5157 z"
       id="path3035" />
    <path
       d="m 156.75391,1098.4229 0,-20.7421 3.16406,0 0,3.1445 c 0.80728,-1.4714 1.55273,-2.4414 2.23633,-2.9102 0.68358,-0.4687 1.43553,-0.7031 2.25586,-0.7031 1.18488,0 2.38931,0.3776 3.61328,1.1328 l -1.21094,3.2617 c -0.85939,-0.5078 -1.71876,-0.7617 -2.57813,-0.7617 -0.76823,0 -1.45834,0.2312 -2.07031,0.6934 -0.61198,0.4622 -1.04818,1.1035 -1.30859,1.9238 -0.39063,1.25 -0.58594,2.6172 -0.58594,4.1016 l 0,10.8593 z"
       id="path3037" />
    <path
       d="m 184.35156,1091.7433 3.63281,0.4492 c -0.57293,2.1224 -1.63413,3.7695 -3.18359,4.9414 -1.54949,1.1719 -3.52866,1.7578 -5.9375,1.7578 -3.03386,0 -5.43946,-0.9343 -7.2168,-2.8027 -1.77734,-1.8685 -2.66601,-4.489 -2.66601,-7.8614 0,-3.4895 0.89843,-6.1979 2.69531,-8.125 1.79687,-1.927 4.1276,-2.8906 6.99219,-2.8906 2.77342,0 5.03905,0.944 6.79687,2.832 1.7578,1.8881 2.6367,4.5443 2.63672,7.9688 -2e-5,0.2083 -0.007,0.5208 -0.0195,0.9375 l -15.46875,0 c 0.1302,2.2786 0.77473,4.0234 1.93359,5.2344 1.15885,1.2109 2.60416,1.8164 4.33594,1.8164 1.28905,0 2.38931,-0.3386 3.30078,-1.0157 0.91145,-0.677 1.6341,-1.7578 2.16797,-3.2421 z m -11.54297,-5.6836 11.58203,0 c -0.15626,-1.7448 -0.59897,-3.0534 -1.32812,-3.9258 -1.11981,-1.3542 -2.57163,-2.0313 -4.35547,-2.0313 -1.61459,0 -2.97201,0.5404 -4.07226,1.6211 -1.10027,1.0808 -1.70899,2.5261 -1.82618,4.336 z"
       id="path3039" />
  </g>
</svg>
